<?xml version="1.0" standalone="no"?>
<!DOCTYPE svg PUBLIC "-//W3C//DTD SVG 20010904//EN"
 "http://www.w3.org/TR/2001/REC-SVG-20010904/DTD/svg10.dtd">
<svg version="1.0" xmlns="http://www.w3.org/2000/svg"
 width="210.000000pt" height="80.000000pt" viewBox="0 0 210.000000 80.000000"
 preserveAspectRatio="xMidYMid meet">
<metadata>
Created by potrace 1.16, written by Peter Selinger 2001-2019
</metadata>
<g transform="translate(0.000000,80.000000) scale(0.100000,-0.100000)"
fill="#000000" stroke="none">
<path d="M710 410 l0 -320 45 0 45 0 0 320 0 320 -45 0 -45 0 0 -320z"/>
<path d="M1440 611 l0 -120 -42 24 c-33 19 -58 25 -103 25 -138 -1 -225 -90
-225 -232 1 -140 89 -228 227 -228 43 0 69 7 101 25 40 23 42 23 42 4 0 -16 7
-19 45 -19 l45 0 0 320 0 320 -45 0 -45 0 0 -119z m-83 -178 c46 -22 73 -67
73 -123 0 -56 -27 -101 -73 -123 -44 -21 -70 -21 -114 0 -97 46 -97 199 0 247
41 20 70 20 114 -1z"/>
<path d="M200 683 c-65 -24 -152 -113 -175 -182 -23 -71 -17 -199 12 -256 27
-51 87 -111 138 -138 56 -29 185 -35 253 -13 105 35 189 144 200 258 l5 58
-167 0 -166 0 0 -45 0 -45 105 0 c58 0 105 -2 105 -5 0 -14 -30 -62 -52 -81
-39 -36 -85 -54 -137 -54 -65 0 -98 13 -144 58 -82 79 -83 213 -3 300 76 85
234 81 308 -7 31 -36 30 -36 85 -15 42 16 42 17 28 44 -22 42 -101 107 -152
124 -59 20 -184 19 -243 -1z"/>
<path d="M1720 508 c-123 -74 -148 -243 -52 -350 50 -56 102 -78 183 -78 50 0
77 6 117 26 43 21 92 68 92 87 0 2 -20 10 -45 16 -40 10 -47 9 -81 -14 -43
-29 -109 -33 -155 -10 -27 14 -69 68 -69 88 0 4 83 7 185 7 l185 0 0 33 c0 56
-20 107 -58 149 -50 56 -102 78 -182 78 -57 0 -73 -5 -120 -32z m197 -78 c18
-10 39 -33 48 -50 l16 -30 -136 0 -136 0 16 30 c21 41 71 70 120 70 22 0 54
-9 72 -20z"/>
<path d="M900 310 l0 -220 45 0 45 0 0 220 0 220 -45 0 -45 0 0 -220z"/>
</g>
</svg>
